<svg xmlns="http://www.w3.org/2000/svg" viewBox="0 0 276 64" fill="none" role="img" aria-label="Fabula">
  <title>Fabula</title>
  <!-- Mark (variant B light) -->
  <rect x="8" y="14" width="48" height="9" rx="2" fill="#4a2d6e" opacity="0.22"/>
  <rect x="16" y="28" width="32" height="9" rx="2" fill="#6a3daa" opacity="0.55"/>
  <rect x="22" y="42" width="20" height="9" rx="2" fill="#c9a84c"/>
  <path d="M 16 18.5 Q 22 23, 24 32.5 T 32 46.5"
        stroke="#4a2d6e" stroke-width="1.8" fill="none"
        stroke-linecap="round" stroke-linejoin="round"/>
  <circle cx="16" cy="18.5" r="2.4" fill="#4a2d6e"/>
  <circle cx="24" cy="32.5" r="2.4" fill="#4a2d6e"/>
  <circle cx="32" cy="46.5" r="2.4" fill="#4a2d6e"/>
  <!-- Wordmark "FABULA" (Cinzel Bold, traced to paths) -->
  <g transform="translate(78 46) scale(0.042857 -0.042857)" fill="#4a2d6e">
    <path transform="translate(0 0)" d="M268.7828369140625 700V0H118.7864990234375V700ZM495.7828369140625 366.0711669921875V323.9288330078125H265.7828369140625V366.0711669921875ZM544.85400390625 700V656.857666015625H265.7828369140625V700ZM495.7828369140625 325.9288330078125V229.572998046875H485.7828369140625V238.5018310546875Q485.7828369140625 274.89398193359375 461.7654113769531 299.10784912109375Q437.74798583984375 323.32171630859375 401.3558349609375 323.9288330078125V325.9288330078125ZM495.7828369140625 460.427001953125V364.0711669921875H401.3558349609375V366.0711669921875Q437.74798583984375 367.0711669921875 462.0689697265625 391.5885925292969Q486.38995361328125 416.10601806640625 485.7828369140625 452.4981689453125V460.427001953125ZM544.85400390625 659.857666015625V548.5381469726562H534.85400390625V559.288330078125Q534.85400390625 603.572998046875 508.5152282714844 630.21533203125Q482.17645263671875 656.857666015625 437.28466796875 657.4647827148438V659.857666015625ZM544.85400390625 718V689L422.85400390625 700Q444.85400390625 700 469.35400390625 703.0Q493.85400390625 706 514.85400390625 710.0Q535.85400390625 714 544.85400390625 718ZM121.7864990234375 73V0H41.7864990234375V10Q41.7864990234375 10 48.2864990234375 10.0Q54.7864990234375 10 54.7864990234375 10Q80.7864990234375 10 99.2864990234375 28.5Q117.7864990234375 47 118.7864990234375 73ZM121.7864990234375 627H118.7864990234375Q118.17938232421875 653 99.35962009429932 671.5Q80.53985786437988 690 54.7864990234375 690Q54.7864990234375 690 48.482940673828125 690.0Q42.17938232421875 690 42.17938232421875 690L41.7864990234375 700H121.7864990234375ZM265.7828369140625 73H268.7828369140625Q269.7828369140625 47 288.2828369140625 28.5Q306.7828369140625 10 332.7828369140625 10Q332.7828369140625 10 338.7828369140625 10.0Q344.7828369140625 10 345.7828369140625 10V0H265.7828369140625Z"/>
    <path transform="translate(676 0)" d="M354.14306640625 720.0711669921875 680.4989013671875 6H501.39581298828125L293.46624755859375 527.3253784179688ZM139.14306640625 73Q130.9288330078125 53 135.9288330078125 39.0Q140.9288330078125 25 153.03594970703125 17.5Q165.14306640625 10 177.14306640625 10H186.14306640625V0H-28.2135009765625V10Q-28.2135009765625 10 -23.7135009765625 10.0Q-19.2135009765625 10 -19.2135009765625 10Q3.7864990234375 10 28.2864990234375 24.5Q52.7864990234375 39 68.7864990234375 73ZM354.14306640625 720.0711669921875 357.67901611328125 597.859130859375 109.714599609375 3H36.96514892578125L296.000732421875 589.143798828125Q299.03631591796875 594.6078491210938 306.357666015625 611.357666015625Q313.67901611328125 628.1074829101562 322.39324951171875 649.14306640625Q331.10748291015625 670.1786499023438 337.82171630859375 689.6071166992188Q344.53594970703125 709.0355834960938 345.14306640625 720.0711669921875ZM459.32318115234375 238.39434814453125V196.25201416015625H164.53668212890625V238.39434814453125ZM473.96734619140625 73H649.4633178710938Q665.6775512695312 39 690.0704345703125 24.5Q714.4633178710938 10 737.4633178710938 10Q737.4633178710938 10 741.4633178710938 10.0Q745.4633178710938 10 745.4633178710938 10V0H426.96734619140625V10H435.96734619140625Q455.574462890625 10 470.8780212402344 26.5Q486.18157958984375 43 473.96734619140625 73Z"/>
    <path transform="translate(1473 0)" d="M158.46405029296875 700H331.24688720703125Q404.282470703125 700 461.5856628417969 682.6427001953125Q518.8888549804688 665.285400390625 552.0849304199219 627.785400390625Q585.281005859375 590.285400390625 585.281005859375 528.7501831054688Q585.281005859375 483.10748291015625 567.4596557617188 451.3039245605469Q549.6383056640625 419.5003662109375 521.9062805175781 402.1252746582031Q494.17425537109375 384.75018310546875 462.53155517578125 381Q513.1030883789062 376.6427001953125 553.4244384765625 352.67828369140625Q593.7457885742188 328.7138671875 616.9778137207031 288.82098388671875Q640.2098388671875 248.9281005859375 640.2098388671875 195.285400390625Q640.2098388671875 131.39288330078125 605.0137634277344 87.67864990234375Q569.8176879882812 43.96441650390625 506.38958740234375 21.982208251953125Q442.96148681640625 0 358.6405029296875 0H259.7828369140625Q259.7828369140625 0 260.2828369140625 11.428466796875Q260.7828369140625 22.85693359375 260.7828369140625 33.981842041015625Q260.7828369140625 45.10675048828125 260.7828369140625 45.10675048828125H315.17791748046875Q359.89251708984375 45.10675048828125 394.3747253417969 62.088958740234375Q428.85693359375 79.0711669921875 448.46405029296875 115.0711669921875Q468.0711669921875 151.0711669921875 468.0711669921875 207.142333984375Q468.0711669921875 251 454.7672424316406 282.0537414550781Q441.46331787109375 313.10748291015625 418.6949768066406 332.6252746582031Q395.9266357421875 352.14306640625 366.1405029296875 361.071533203125Q336.3543701171875 370 302.7828369140625 370V379Q326.38995361328125 379 348.31878662109375 386.428466796875Q370.24761962890625 393.85693359375 387.4444274902344 409.7676086425781Q404.6412353515625 425.67828369140625 414.96295166015625 452.1427001953125Q425.28466796875 478.60711669921875 425.28466796875 516.2861328125Q425.28466796875 566.7501831054688 409.39178466796875 597.8395080566406Q393.4989013671875 628.9288330078125 364.9451599121094 643.0003662109375Q336.39141845703125 657.0718994140625 297.4981689453125 657.0718994140625H168.46405029296875Q168.46405029296875 658.0718994140625 165.96405029296875 668.3039245605469Q163.46405029296875 678.5359497070312 160.96405029296875 689.2679748535156Q158.46405029296875 700 158.46405029296875 700ZM268.7828369140625 700V0H118.7864990234375V700ZM121.7864990234375 73V0H41.7864990234375L42.17938232421875 10Q44.17938232421875 10 48.982940673828125 10.0Q53.7864990234375 10 54.7864990234375 10Q80.7864990234375 10 99.48294067382812 28.5Q118.17938232421875 47 118.7864990234375 73ZM121.7864990234375 627H118.7864990234375Q118.17938232421875 653 99.48294067382812 671.5Q80.7864990234375 690 54.7864990234375 690Q53.7864990234375 690 48.982940673828125 690.0Q44.17938232421875 690 42.17938232421875 690L41.7864990234375 700H121.7864990234375Z"/>
    <path transform="translate(2227 0)" d="M256.85400390625 700V260Q256.85400390625 189.2142333984375 280.6219787597656 137.24981689453125Q304.38995361328125 85.285400390625 347.8365783691406 57.2138671875Q391.283203125 29.142333984375 450.6405029296875 29.142333984375Q512.1764526367188 29.142333984375 556.4088439941406 55.7138671875Q600.6412353515625 82.285400390625 624.99853515625 131.05337524414062Q649.3558349609375 179.82135009765625 649.3558349609375 247V700H720.6405029296875V253.0711669921875Q720.6405029296875 171.428466796875 686.2298278808594 111.41067504882812Q651.8191528320312 51.39288330078125 587.1764526367188 18.696441650390625Q522.5337524414062 -14 432.427001953125 -14Q325.74945068359375 -14 252.928466796875 18.5Q180.10748291015625 51 143.48257446289062 110.7142333984375Q106.857666015625 170.428466796875 106.857666015625 252.0711669921875V700ZM109.857666015625 700V640H106.857666015625Q106.857666015625 662 91.357666015625 676.0Q75.857666015625 690 53.857666015625 690Q53.857666015625 690 45.857666015625 690.0Q37.857666015625 690 37.857666015625 690V700ZM325.85400390625 700V690Q325.85400390625 690 317.85400390625 690.0Q309.85400390625 690 309.85400390625 690Q287.85400390625 690 272.35400390625 676.0Q256.85400390625 662 256.85400390625 640H254.85400390625V700ZM652.3558349609375 700V640H649.3558349609375Q649.3558349609375 662 633.8558349609375 676.0Q618.3558349609375 690 596.3558349609375 690Q596.3558349609375 690 588.3558349609375 690.0Q580.3558349609375 690 580.3558349609375 690V700ZM789.6405029296875 700V690Q789.6405029296875 690 781.6405029296875 690.0Q773.6405029296875 690 773.6405029296875 690Q751.6405029296875 690 736.1405029296875 676.0Q720.6405029296875 662 720.6405029296875 640H718.6405029296875V700Z"/>
    <path transform="translate(3128 0)" d="M268.7828369140625 700V0H118.7864990234375V700ZM532.711669921875 43.142333984375 556.996337890625 0H265.7828369140625V43.142333984375ZM605.85400390625 204.4981689453125 559.996337890625 0H363.6405029296875L399.6405029296875 43.142333984375Q449.60491943359375 43.142333984375 487.96185302734375 62.67791748046875Q526.3187866210938 82.2135009765625 553.3899536132812 118.58822631835938Q580.4611206054688 154.96295166015625 596.0875103290265 204.4981689453125ZM121.7864990234375 73V0H41.7864990234375V10Q41.7864990234375 10 48.2864990234375 10.0Q54.7864990234375 10 54.7864990234375 10Q80.7864990234375 10 99.2864990234375 28.5Q117.7864990234375 47 118.7864990234375 73ZM121.7864990234375 627H118.7864990234375Q117.7864990234375 653 99.2864990234375 671.5Q80.7864990234375 690 54.7864990234375 690Q54.7864990234375 690 48.2864990234375 690.0Q41.7864990234375 690 41.7864990234375 690V700H121.7864990234375ZM265.7828369140625 627V700H345.7828369140625V690Q344.7828369140625 690 338.7828369140625 690.0Q332.7828369140625 690 332.7828369140625 690Q306.7828369140625 690 288.2828369140625 671.5Q269.7828369140625 653 268.7828369140625 627Z"/>
    <path transform="translate(3825 0)" d="M354.14306640625 720.0711669921875 680.4989013671875 6H501.39581298828125L293.46624755859375 527.3253784179688ZM139.14306640625 73Q130.9288330078125 53 135.9288330078125 39.0Q140.9288330078125 25 153.03594970703125 17.5Q165.14306640625 10 177.14306640625 10H186.14306640625V0H-28.2135009765625V10Q-28.2135009765625 10 -23.7135009765625 10.0Q-19.2135009765625 10 -19.2135009765625 10Q3.7864990234375 10 28.2864990234375 24.5Q52.7864990234375 39 68.7864990234375 73ZM354.14306640625 720.0711669921875 357.67901611328125 597.859130859375 109.714599609375 3H36.96514892578125L296.000732421875 589.143798828125Q299.03631591796875 594.6078491210938 306.357666015625 611.357666015625Q313.67901611328125 628.1074829101562 322.39324951171875 649.14306640625Q331.10748291015625 670.1786499023438 337.82171630859375 689.6071166992188Q344.53594970703125 709.0355834960938 345.14306640625 720.0711669921875ZM459.32318115234375 238.39434814453125V196.25201416015625H164.53668212890625V238.39434814453125ZM473.96734619140625 73H649.4633178710938Q665.6775512695312 39 690.0704345703125 24.5Q714.4633178710938 10 737.4633178710938 10Q737.4633178710938 10 741.4633178710938 10.0Q745.4633178710938 10 745.4633178710938 10V0H426.96734619140625V10H435.96734619140625Q455.574462890625 10 470.8780212402344 26.5Q486.18157958984375 43 473.96734619140625 73Z"/>
  </g>
</svg>
